# xmcd CD database file generated by Grip 2.93
# 
# Track frame offsets:
#       150
#       26627
#       52482
#       66945
#       81485
#       98960
#       113770
#       131925
#       159317
# 
# Disc length: 2275 seconds
# 
# Revision: 3
# Processed by: cddbd v1.4PL0 Copyright (c) Steve Scherf et al.
# Submitted via: Grip 2.93
# 
DISCID=8308e109
DTITLE=Madre Del Vizio - The Crypt
DYEAR=1900
DGENRE=
TTITLE0=The Crypt. Benvenuti
TTITLE1=Sudore e Sangue
TTITLE2=Kingdom of Heaven
TTITLE3=Madre
TTITLE4=What a Day
TTITLE5=Amore, Fede, Speranza
TTITLE6=Bestie Metalliche
TTITLE7=Un Mondo Dove...
TTITLE8=Paura
EXTD=
EXTT0=
EXTT1=
EXTT2=
EXTT3=
EXTT4=
EXTT5=
EXTT6=
EXTT7=
EXTT8=
PLAYORDER=
